<svg width="16" height="19" viewBox="0 0 16 19" fill="none" xmlns="http://www.w3.org/2000/svg">
<path d="M8.80052 12.0419L8.9384 11.4317H8.31282H2.24873C1.44044 11.4317 0.845392 10.8402 0.827106 10.1939L0.831731 10.1599L0.866861 9.90133L0.826673 9.86435V8.39498C0.826673 8.24068 0.857758 8.097 0.918308 7.95239L3.8168 1.72718L3.81682 1.72719L3.81899 1.72241C4.0207 1.27702 4.51652 0.937447 5.13181 0.937447H13.7811C14.6021 0.937447 15.2031 1.54776 15.2031 2.20579V11.0475C15.2031 11.3832 15.0586 11.6925 14.8026 11.9216L14.8026 11.9216L14.7973 11.9265L8.81069 17.4427L8.1324 16.8245C8.13214 16.8243 8.13188 16.824 8.13162 16.8238C7.97151 16.6761 7.87773 16.4791 7.87136 16.2772L7.8942 16.0531L8.80052 12.0419Z" stroke="#0F0F0F"/>
</svg>
