<svg width="20" height="19" viewBox="0 0 20 19" fill="none" xmlns="http://www.w3.org/2000/svg">
<path d="M11.1995 6.5165L11.0616 7.12669H11.6872H17.7513C18.5596 7.12669 19.1546 7.7182 19.1729 8.36441L19.1683 8.39845L19.1331 8.65702L19.1733 8.694V10.1634C19.1733 10.3177 19.1422 10.4613 19.0817 10.606L16.1832 16.8312L16.1832 16.8312L16.181 16.8359C15.9793 17.2813 15.4835 17.6209 14.8682 17.6209H6.21893C5.39789 17.6209 4.79688 17.0106 4.79688 16.3526V7.51086C4.79688 7.17513 4.94136 6.86589 5.19737 6.63672L5.1974 6.63676L5.20269 6.63189L11.1893 1.11568L11.8676 1.73384C11.8679 1.73408 11.8681 1.73431 11.8684 1.73455C12.0285 1.88221 12.1223 2.07921 12.1286 2.2811L12.1058 2.5053L11.1995 6.5165Z" stroke="#0F0F0F"/>
<path d="M4.72068 7.56055H1L1.00008 17.663H4.78926M7.62463 17.663H4.78926M4.78926 16.5023V17.663" stroke="#0F0F0F"/>
</svg>
