<svg width="24" height="24" viewBox="0 0 24 24" fill="none" xmlns="http://www.w3.org/2000/svg">
<path fill-rule="evenodd" clip-rule="evenodd" d="M4.76639 7.73316C2.95632 8.84318 2.33614 11.3016 3.38118 13.2242C3.96549 14.2992 4.87215 15.0248 5.84447 15.2799C4.50463 16.517 4.13254 18.6271 5.05339 20.3213C6.09843 22.2439 8.41296 22.9026 10.223 21.7926L19.2336 16.2669C21.0437 15.1568 21.6639 12.6984 20.6188 10.7758C20.0423 9.7152 19.0795 9.03922 18.0282 8.8326C19.4711 7.61428 19.896 5.42542 18.9466 3.67878C17.9016 1.75617 15.587 1.09743 13.777 2.20745L4.76639 7.73316Z" fill="#FF0000"/>
<path d="M10.1876 9.62018L15.3162 12.7653L10.1876 15.9104L10.1876 9.62018Z" fill="white"/>
</svg>
